<?xml version="1.0" encoding="utf-8"?>
<!-- Generator: Adobe Illustrator 16.0.0, SVG Export Plug-In . SVG Version: 6.00 Build 0)  -->
<!DOCTYPE svg PUBLIC "-//W3C//DTD SVG 1.1//EN" "http://www.w3.org/Graphics/SVG/1.1/DTD/svg11.dtd">
<svg version="1.1" id="Layer_1" xmlns="http://www.w3.org/2000/svg" xmlns:xlink="http://www.w3.org/1999/xlink" x="0px" y="0px"
	 width="415.5px" height="37.261px" viewBox="0 0 415.5 37.261" enable-background="new 0 0 415.5 37.261" xml:space="preserve">
<path fill-rule="evenodd" clip-rule="evenodd" fill="#252C69" d="M65.163,27.957H47.27v1.674h-0.016
	c0,2.855-2.145,5.184-4.775,5.184c-2.629,0-4.774-2.328-4.774-5.184v-1.674H12.958c-5.929,0-10.763-6.279-10.763-13.979
	C2.195,6.28,7.029,0,12.958,0h52.205c5.929,0,10.766,6.28,10.766,13.978C75.929,21.677,71.092,27.957,65.163,27.957"/>
<path fill-rule="evenodd" clip-rule="evenodd" fill="#FFFFFF" d="M44.815,29.629c0,1.393-1.052,2.534-2.336,2.534
	s-2.336-1.141-2.336-2.534V14.15h0.005c0.031-5.806,4.396-10.527,9.747-10.527c5.368,0,9.749,4.753,9.749,10.581
	s-4.381,10.581-9.749,10.581c-0.653,0-1.291-0.069-1.909-0.203l0.001-0.003c-1.057-0.239-1.854-1.178-1.854-2.481
	c0-1.305,1.047-2.528,2.328-2.528c0.158,0,0.313,0.017,0.461,0.05h0.002l0.011,0.003c0.312,0.065,0.633,0.096,0.961,0.096
	c2.799,0,5.083-2.475,5.083-5.514c0-3.038-2.284-5.514-5.083-5.514c-2.781,0-5.054,2.446-5.079,5.46h-0.002
	C44.814,19.314,44.815,24.465,44.815,29.629"/>
<path fill-rule="evenodd" clip-rule="evenodd" fill="#FFFFFF" d="M33.482,22.085c0,1.395,1.051,2.534,2.336,2.534
	c1.284,0,2.335-1.139,2.335-2.534v-7.937h-0.006c-0.028-5.805-4.396-10.526-9.745-10.526c-5.371,0-9.75,4.753-9.75,10.581
	s4.379,10.581,9.75,10.581c0.653,0,1.29-0.069,1.908-0.203v-0.003c1.057-0.239,1.855-1.178,1.855-2.481
	c0-1.305-1.047-2.529-2.33-2.529c-0.157,0-0.312,0.017-0.461,0.049l0,0c-0.004,0.001-0.008,0.004-0.008,0.004
	c-0.316,0.065-0.637,0.096-0.965,0.096c-2.801,0-5.083-2.475-5.083-5.514c0-3.038,2.282-5.514,5.083-5.514
	c2.781,0,5.053,2.446,5.078,5.46l0.003-0.001C33.483,19.314,33.482,16.922,33.482,22.085"/>
<path fill-rule="evenodd" clip-rule="evenodd" fill="#252C69" d="M246.457,28.217c0.396-1.042,0.771-2.061,1.111-3.061
	c0.35-1.007,0.674-1.982,0.971-2.94l0.826-2.595c0.318-1.042,0.541-1.759,0.656-2.14c0.117-0.382,0.201-0.679,0.25-0.88
	c0.152-0.611,0.201-1.084,0.155-1.417c-0.052-0.334-0.19-0.498-0.418-0.498c-0.162,0-0.526,0.048-1.087,0.152
	c-0.555,0.097-1.031,0.17-1.407,0.201l0.34-0.905c1.331-0.618,2.603-1.158,3.817-1.618c1.213-0.461,2.385-0.843,3.505-1.152
	c0.144,0.122,0.266,0.237,0.354,0.358c0.094,0.115,0.166,0.247,0.227,0.406c-0.039,0.163-0.083,0.363-0.131,0.6
	c-0.045,0.237-0.08,0.395-0.096,0.461c-0.047,0.182-0.095,0.358-0.144,0.534c-0.052,0.181-0.101,0.364-0.158,0.552l1.263-0.867
	c0.092-0.074,0.258-0.201,0.484-0.377c0.811-0.636,1.561-1.145,2.258-1.527c0.184-0.042,0.367-0.077,0.54-0.104
	c0.173-0.023,0.339-0.036,0.493-0.036c0.281,0,0.58,0.049,0.889,0.139c0.311,0.098,0.637,0.244,0.978,0.45l-2.595,4.152
	c-0.457-0.498-0.863-0.86-1.228-1.085c-0.369-0.225-0.705-0.334-1.007-0.334c-0.295,0-0.645,0.103-1.041,0.311
	c-0.403,0.206-0.887,0.531-1.455,0.981l-1.102,3.534c-0.051,0.157-0.162,0.52-0.338,1.103c-0.679,2.226-1.338,4.286-1.967,6.184
	c-0.857,0.376-1.693,0.686-2.512,0.921C248.078,27.956,247.268,28.122,246.457,28.217 M137.992,28.292
	c0.684-1.93,1.405-4.111,2.168-6.547c0.123-0.408,0.211-0.698,0.267-0.873l0.817-2.589c0.012-0.05,0.027-0.115,0.049-0.201
	c0.238-0.781,0.398-1.346,0.482-1.687c0.162-0.654,0.19-1.107,0.092-1.36c-0.1-0.257-0.347-0.384-0.738-0.384
	c-0.155,0-0.398,0.031-0.725,0.09c-0.335,0.061-0.783,0.158-1.354,0.305l0.31-0.983c1.188-0.515,2.408-1.006,3.674-1.472
	c1.271-0.462,2.598-0.905,3.984-1.328c0.111,0.047,0.208,0.108,0.29,0.188c0.088,0.072,0.172,0.182,0.254,0.327
	c-0.163,0.613-0.336,1.224-0.517,1.818c-0.176,0.6-0.363,1.175-0.557,1.734l3.155-1.515c0.21-0.104,0.517-0.261,0.917-0.462
	c2.618-1.284,4.301-2,5.053-2.127c0.176,0.037,0.346,0.097,0.496,0.188c0.153,0.084,0.29,0.206,0.401,0.364
	c-0.021,0.078-0.058,0.218-0.116,0.405c-0.466,1.528-0.818,2.687-1.068,3.469l-1.395,4.381c-0.012,0.05-0.047,0.166-0.104,0.352
	c-0.056,0.182-0.099,0.335-0.127,0.449c-0.264,1.066-0.326,1.837-0.18,2.31c0.146,0.473,0.508,0.709,1.086,0.709
	c0.426,0,1.316-0.351,2.66-1.049l0.156-0.086l0.109,1.208c-1.203,0.684-2.478,1.375-3.814,2.066
	c-1.334,0.691-2.777,1.407-4.32,2.142c-0.22-0.038-0.42-0.087-0.602-0.141c-0.182-0.06-0.348-0.133-0.488-0.219
	c-0.23-0.375-0.359-0.805-0.374-1.291c-0.019-0.483,0.074-1.132,0.272-1.938c0.006-0.025,0.033-0.11,0.084-0.269
	c0.047-0.151,0.174-0.545,0.375-1.187l1.213-3.851c0.207-0.678,0.387-1.272,0.537-1.794c0.151-0.521,0.24-0.836,0.268-0.944
	c0.123-0.498,0.134-0.861,0.029-1.098c-0.096-0.236-0.307-0.356-0.635-0.356c-0.23,0-0.541,0.078-0.926,0.241
	c-0.392,0.156-1.02,0.467-1.885,0.934l-1.307,0.728c-0.578,1.75-1.117,3.468-1.639,5.146c-0.515,1.679-1.011,3.328-1.484,4.936
	L137.992,28.292z M331.099,28.308c0.323-1.091,0.719-2.361,1.187-3.812c0.465-1.445,0.732-2.292,0.801-2.528l0.846-2.679
	c0.066-0.25,0.168-0.6,0.3-1.031c0.269-0.89,0.448-1.471,0.511-1.727c0.176-0.732,0.224-1.241,0.143-1.51
	c-0.081-0.27-0.346-0.406-0.783-0.406c-0.206,0-0.482,0.021-0.816,0.061c-0.332,0.038-0.729,0.103-1.177,0.188l0.193-0.977
	c1.225-0.483,2.459-0.938,3.712-1.357c1.254-0.418,2.527-0.806,3.816-1.164l0.723,0.303l-0.086,0.352
	c-0.086,0.347-0.197,0.776-0.344,1.297c-0.144,0.522-0.317,1.134-0.513,1.83l2.253-1.047c0.115-0.061,0.291-0.14,0.519-0.25
	c2.304-1.102,4.292-1.938,5.963-2.485c0.138,0.025,0.267,0.072,0.384,0.139c0.122,0.074,0.244,0.188,0.368,0.34
	c-0.097,0.395-0.222,0.846-0.372,1.352c-0.15,0.507-0.359,1.158-0.605,1.951l2.998-1.418c0.105-0.049,0.318-0.147,0.605-0.283
	c1.695-0.815,3.292-1.511,4.784-2.081c0.247,0.062,0.442,0.143,0.575,0.25c0.131,0.105,0.26,0.26,0.361,0.46
	c-0.181,0.685-0.377,1.387-0.592,2.097c-0.213,0.709-0.458,1.473-0.736,2.291l-0.75,2.377c-0.125,0.369-0.246,0.737-0.346,1.085
	c-0.102,0.353-0.201,0.719-0.29,1.085c-0.231,0.955-0.303,1.719-0.216,2.279c0.086,0.559,0.316,0.842,0.689,0.842
	c0.174,0,0.502-0.102,0.976-0.284c0.474-0.184,1.243-0.535,2.293-1.031l-0.196,1.067c-1.281,0.806-2.568,1.575-3.857,2.303
	c-1.287,0.728-2.598,1.431-3.92,2.105c-0.338-0.1-0.588-0.17-0.748-0.226c-0.162-0.049-0.293-0.104-0.403-0.15
	c-0.175-0.614-0.267-1.188-0.272-1.704c-0.006-0.52,0.059-1.058,0.188-1.602c0.053-0.218,0.194-0.703,0.427-1.436
	c0.23-0.735,0.415-1.302,0.544-1.704l0.589-1.849c0.191-0.612,0.364-1.172,0.508-1.666c0.142-0.494,0.244-0.854,0.291-1.049
	c0.103-0.422,0.113-0.776,0.031-1.049c-0.084-0.273-0.24-0.407-0.47-0.407c-0.252,0-0.513,0.037-0.776,0.091
	c-0.26,0.054-0.601,0.169-0.998,0.335c-0.27,0.12-0.554,0.254-0.852,0.399c-0.295,0.15-0.602,0.309-0.916,0.474l-1.1,3.389
	c-0.045,0.145-0.319,1.001-0.808,2.57c-0.485,1.558-0.96,3.036-1.423,4.412c-0.693,0.26-1.424,0.489-2.17,0.673
	c-0.747,0.184-1.549,0.351-2.402,0.479c0.494-1.776,1.065-3.627,1.696-5.541c0.081-0.244,0.146-0.425,0.179-0.515l0.729-2.413
	c0.146-0.477,0.334-1.045,0.541-1.697c0.211-0.657,0.336-1.06,0.369-1.199c0.133-0.556,0.183-0.968,0.146-1.225
	c-0.035-0.257-0.166-0.389-0.385-0.389c-0.424,0-0.971,0.126-1.62,0.365c-0.651,0.238-1.427,0.604-2.323,1.091l-1.021,3.212
	c-0.039,0.109-0.095,0.292-0.171,0.551c-0.689,2.225-1.409,4.377-2.164,6.463c-0.774,0.309-1.549,0.576-2.318,0.799
	C332.627,28,331.863,28.175,331.099,28.308 M102.57,24.405c-1.123,0.794-2.218,1.496-3.281,2.121
	c-1.063,0.619-2.119,1.158-3.155,1.608c-0.193-0.013-0.382-0.038-0.562-0.081c-0.179-0.042-0.361-0.097-0.537-0.169
	c-0.381-0.77-0.617-1.503-0.721-2.201c-0.102-0.703-0.061-1.4,0.111-2.097c0.426-1.728,0.936-3.322,1.527-4.771
	c0.592-1.449,1.166-2.535,1.73-3.257c1.018-0.678,2.156-1.356,3.424-2.036c1.262-0.679,2.61-1.352,4.038-2.019
	c0.354-0.054,0.649-0.104,0.894-0.133c0.24-0.03,0.451-0.043,0.623-0.043c0.916,0,1.822,0.105,2.723,0.304s1.729,0.492,2.482,0.867
	l-1.584,1.26c-0.457,1.104-0.861,2.158-1.211,3.165c-0.343,1.007-0.637,1.994-0.875,2.964c-0.4,1.619-0.602,2.771-0.601,3.443
	c0.007,0.673,0.198,1.014,0.577,1.014c0.252,0,1.306-0.473,3.162-1.414l0.266-0.146l-0.307,1.243
	c-1.693,1.158-3.17,2.072-4.438,2.733c-1.263,0.661-2.44,1.159-3.539,1.491c-0.19-0.109-0.368-0.229-0.54-0.369
	c-0.164-0.145-0.335-0.315-0.515-0.516c0.019-0.436,0.056-0.903,0.104-1.393C102.42,25.483,102.488,24.962,102.57,24.405
	 M102.887,22.914c0.566-1.935,1.056-3.554,1.48-4.862c0.418-1.309,0.818-2.455,1.188-3.437c-0.332-0.236-0.701-0.419-1.095-0.54
	c-0.394-0.128-0.809-0.189-1.244-0.189c-0.732,0-1.404,0.534-2.014,1.602c-0.615,1.065-1.194,2.709-1.742,4.936
	c-0.275,1.114-0.354,2.041-0.229,2.782c0.123,0.738,0.38,1.106,0.776,1.106c0.15,0,0.346-0.047,0.59-0.15
	c0.24-0.097,0.566-0.26,0.975-0.484L102.887,22.914z M129.299,24.405c-1.123,0.794-2.217,1.496-3.281,2.121
	c-1.063,0.619-2.118,1.158-3.154,1.608c-0.193-0.013-0.382-0.038-0.562-0.081c-0.179-0.042-0.361-0.097-0.538-0.169
	c-0.381-0.77-0.618-1.503-0.721-2.201c-0.1-0.703-0.06-1.4,0.111-2.097c0.426-1.728,0.938-3.322,1.529-4.771
	c0.592-1.449,1.164-2.535,1.73-3.257c1.016-0.678,2.154-1.356,3.422-2.036c1.263-0.679,2.611-1.352,4.039-2.019
	c0.354-0.054,0.649-0.104,0.893-0.133c0.241-0.03,0.451-0.043,0.624-0.043c0.916,0,1.823,0.105,2.724,0.304
	c0.899,0.199,1.727,0.492,2.481,0.867l-1.583,1.26c-0.458,1.104-0.863,2.158-1.212,3.165c-0.343,1.007-0.638,1.994-0.876,2.964
	c-0.4,1.619-0.602,2.771-0.6,3.443c0.008,0.673,0.198,1.014,0.576,1.014c0.252,0,1.307-0.473,3.163-1.414l0.265-0.146l-0.307,1.243
	c-1.693,1.158-3.169,2.072-4.438,2.733c-1.264,0.661-2.44,1.159-3.539,1.491c-0.191-0.109-0.367-0.229-0.539-0.369
	c-0.166-0.145-0.336-0.315-0.516-0.516c0.019-0.436,0.055-0.903,0.104-1.393C129.149,25.483,129.217,24.962,129.299,24.405
	 M129.617,22.914c0.565-1.935,1.055-3.554,1.479-4.862c0.419-1.309,0.818-2.455,1.189-3.437c-0.332-0.236-0.701-0.419-1.096-0.54
	c-0.393-0.128-0.808-0.189-1.242-0.189c-0.732,0-1.406,0.534-2.016,1.602c-0.615,1.065-1.193,2.709-1.742,4.936
	c-0.275,1.114-0.354,2.041-0.229,2.782c0.123,0.738,0.38,1.106,0.775,1.106c0.151,0,0.348-0.047,0.592-0.15
	c0.24-0.097,0.564-0.26,0.974-0.484L129.617,22.914z M176.713,24.405c-1.122,0.794-2.217,1.496-3.281,2.121
	c-1.063,0.619-2.117,1.158-3.155,1.608c-0.192-0.013-0.382-0.038-0.562-0.081c-0.178-0.042-0.36-0.097-0.537-0.169
	c-0.381-0.77-0.618-1.503-0.721-2.201c-0.1-0.703-0.062-1.4,0.111-2.097c0.426-1.728,0.936-3.322,1.529-4.771
	c0.592-1.449,1.165-2.535,1.73-3.257c1.016-0.678,2.154-1.356,3.422-2.036c1.262-0.679,2.611-1.352,4.037-2.019
	c0.355-0.054,0.651-0.104,0.894-0.133c0.241-0.03,0.452-0.043,0.625-0.043c0.916,0,1.823,0.105,2.724,0.304
	c0.898,0.199,1.725,0.492,2.481,0.867l-1.583,1.26c-0.458,1.104-0.863,2.158-1.213,3.165c-0.344,1.007-0.637,1.994-0.877,2.964
	c-0.398,1.619-0.6,2.771-0.598,3.443c0.006,0.673,0.197,1.014,0.577,1.014c0.251,0,1.306-0.473,3.162-1.414l0.265-0.146
	l-0.307,1.243c-1.693,1.158-3.17,2.072-4.438,2.733c-1.264,0.661-2.441,1.159-3.539,1.491c-0.191-0.109-0.367-0.229-0.541-0.369
	c-0.164-0.145-0.334-0.315-0.514-0.516c0.019-0.436,0.055-0.903,0.104-1.393C176.563,25.483,176.631,24.962,176.713,24.405
	 M177.031,22.914c0.565-1.935,1.055-3.554,1.479-4.862c0.417-1.309,0.817-2.455,1.187-3.437c-0.33-0.236-0.699-0.419-1.094-0.54
	c-0.393-0.128-0.809-0.189-1.244-0.189c-0.73,0-1.404,0.534-2.014,1.602c-0.615,1.065-1.193,2.709-1.742,4.936
	c-0.275,1.114-0.354,2.041-0.229,2.782c0.123,0.738,0.379,1.106,0.775,1.106c0.151,0,0.348-0.047,0.59-0.15
	c0.242-0.097,0.566-0.26,0.975-0.484L177.031,22.914z M167.16,24.917c-1.092,0.604-2.131,1.151-3.119,1.633
	c-1.309,0.642-2.521,1.17-3.635,1.584c-0.229-0.038-0.439-0.098-0.619-0.178c-0.182-0.084-0.356-0.204-0.527-0.357
	c-0.314-0.922-0.499-1.8-0.549-2.637c-0.051-0.837,0.027-1.668,0.231-2.498c0.195-0.794,0.427-1.617,0.696-2.486
	c0.27-0.865,0.559-1.745,0.884-2.646l0.888-2.542l-4.414-0.139l2.222-1.177l2.724-0.176c0.105-0.297,0.268-0.744,0.482-1.344
	c0.574-1.674,1.018-2.946,1.334-3.82l4.904-1.528c-0.256,0.698-0.588,1.589-0.98,2.662c-0.479,1.305-0.732,2.025-0.781,2.169
	l-0.637,1.898h4.254l-1.842,1.315c-0.251,0-0.622,0.006-1.112,0.024c-0.489,0.018-1.084,0.049-1.778,0.085l-0.761,2.22
	c-0.196,0.574-0.383,1.146-0.548,1.702c-0.165,0.557-0.318,1.127-0.461,1.703c-0.241,0.983-0.232,1.873,0.029,2.668
	c0.262,0.794,0.695,1.188,1.293,1.188c0.272,0,0.662-0.086,1.173-0.254c0.271-0.093,0.594-0.216,0.969-0.37L167.16,24.917z
	 M259.742,28.308c0.326-1.091,0.717-2.357,1.188-3.812c0.47-1.449,0.732-2.292,0.802-2.528l0.845-2.679
	c0.068-0.25,0.172-0.595,0.301-1.031c0.275-0.891,0.445-1.467,0.51-1.727c0.181-0.734,0.229-1.238,0.145-1.51
	c-0.084-0.273-0.348-0.406-0.783-0.406c-0.207,0-0.479,0.019-0.818,0.061c-0.035,0.004-0.071,0.01-0.107,0.015l0.313-1.261
	c0.835-0.314,1.677-0.616,2.525-0.9c1.252-0.418,2.526-0.806,3.814-1.164l0.725,0.303l-0.088,0.352
	c-0.085,0.347-0.197,0.776-0.342,1.297c-0.146,0.522-0.318,1.134-0.513,1.83l2.252-1.047c0.114-0.061,0.284-0.14,0.519-0.25
	c2.305-1.107,4.291-1.938,5.963-2.485c0.139,0.025,0.267,0.072,0.385,0.139c0.121,0.074,0.242,0.188,0.367,0.34
	c-0.098,0.395-0.219,0.843-0.373,1.352c-0.154,0.51-0.358,1.158-0.605,1.951l2.998-1.418c0.107-0.049,0.314-0.145,0.605-0.283
	c1.698-0.82,3.293-1.511,4.785-2.081c0.248,0.062,0.439,0.139,0.574,0.25c0.137,0.108,0.262,0.26,0.361,0.46
	c-0.18,0.685-0.377,1.387-0.59,2.097c-0.215,0.709-0.459,1.473-0.739,2.291l-0.748,2.377c-0.126,0.369-0.243,0.734-0.345,1.085
	c-0.106,0.358-0.2,0.714-0.291,1.085c-0.237,0.958-0.307,1.714-0.217,2.279c0.09,0.563,0.317,0.842,0.691,0.842
	c0.173,0,0.498-0.096,0.975-0.284c0.307-0.12,0.729-0.306,1.273-0.555l-0.32,1.298c-0.902,0.549-1.805,1.08-2.715,1.596
	c-1.29,0.728-2.597,1.431-3.919,2.105c-0.339-0.1-0.589-0.17-0.748-0.226c-0.162-0.049-0.294-0.104-0.403-0.15
	c-0.174-0.614-0.268-1.184-0.273-1.704c-0.01-0.522,0.055-1.055,0.189-1.602c0.055-0.223,0.195-0.703,0.426-1.436
	c0.232-0.735,0.412-1.302,0.545-1.704l0.59-1.849c0.191-0.612,0.361-1.168,0.506-1.666c0.145-0.499,0.243-0.85,0.292-1.049
	c0.106-0.425,0.114-0.776,0.03-1.049c-0.084-0.273-0.24-0.407-0.469-0.407c-0.252,0-0.511,0.031-0.777,0.091
	c-0.264,0.055-0.6,0.169-0.998,0.335c-0.27,0.12-0.553,0.254-0.852,0.399c-0.293,0.15-0.602,0.309-0.914,0.474l-1.1,3.389
	c-0.047,0.145-0.314,0.998-0.809,2.57c-0.486,1.563-0.961,3.036-1.424,4.412c-0.694,0.26-1.42,0.485-2.17,0.673
	c-0.748,0.188-1.549,0.351-2.402,0.479c0.494-1.776,1.063-3.625,1.699-5.541c0.082-0.249,0.144-0.425,0.177-0.515l0.729-2.413
	c0.146-0.477,0.329-1.042,0.541-1.697c0.213-0.661,0.334-1.055,0.368-1.199c0.138-0.558,0.188-0.965,0.147-1.225
	c-0.037-0.263-0.168-0.389-0.385-0.389c-0.426,0-0.969,0.121-1.621,0.365c-0.656,0.241-1.428,0.604-2.322,1.091l-1.023,3.212
	c-0.037,0.109-0.094,0.292-0.169,0.551c-0.688,2.225-1.409,4.377-2.164,6.463c-0.774,0.309-1.549,0.576-2.319,0.799
	C261.271,28,260.509,28.175,259.742,28.308 M378.805,24.933c-1.08,0.598-2.111,1.142-3.092,1.617
	c-1.307,0.642-2.52,1.17-3.633,1.584c-0.232-0.038-0.439-0.098-0.621-0.178c-0.181-0.084-0.357-0.204-0.525-0.357
	c-0.316-0.922-0.499-1.8-0.551-2.637c-0.049-0.837,0.027-1.668,0.232-2.498c0.195-0.794,0.428-1.617,0.696-2.486
	c0.271-0.865,0.56-1.745,0.883-2.646l0.888-2.542l-4.414-0.139l2.222-1.177l2.724-0.176c0.106-0.297,0.269-0.744,0.483-1.344
	c0.573-1.674,1.017-2.946,1.333-3.82l4.904-1.528c-0.256,0.698-0.586,1.589-0.98,2.662c-0.477,1.305-0.732,2.025-0.781,2.169
	l-0.635,1.898h4.254l-1.844,1.315c-0.25,0-0.621,0.006-1.109,0.024c-0.492,0.018-1.085,0.049-1.781,0.085l-0.76,2.22
	c-0.197,0.574-0.384,1.146-0.549,1.702c-0.165,0.557-0.316,1.127-0.46,1.703c-0.241,0.983-0.233,1.873,0.03,2.668
	c0.261,0.794,0.693,1.188,1.292,1.188c0.274,0,0.661-0.086,1.173-0.254c0.264-0.092,0.578-0.21,0.943-0.359L378.805,24.933z
	 M392.465,24.576c-0.893,0.544-1.789,1.063-2.691,1.556c-1.214,0.667-2.436,1.291-3.65,1.854c-0.502,0.135-0.897,0.219-1.176,0.267
	c-0.287,0.049-0.55,0.072-0.789,0.072c-1.604,0-2.715-0.586-3.326-1.768c-0.615-1.176-0.662-2.819-0.143-4.924
	c0.418-1.696,0.982-3.211,1.699-4.557c0.711-1.347,1.453-2.311,2.219-2.904c0.334-0.249,0.807-0.533,1.424-0.855
	c0.613-0.315,1.274-0.624,1.99-0.921c0.989-0.413,1.844-0.728,2.57-0.934c0.727-0.205,1.316-0.311,1.762-0.311
	c0.799,0,1.359,0.262,1.693,0.783c0.335,0.521,0.396,1.231,0.174,2.128c-0.237,0.964-0.729,1.818-1.477,2.571
	c-0.75,0.75-2.305,1.756-4.666,3.023l-2.967,1.564c-0.07,1.171,0.148,2.05,0.665,2.626c0.515,0.581,1.325,0.873,2.425,0.873
	c0.504,0,1.137-0.122,1.894-0.364c0.596-0.189,1.493-0.545,2.687-1.068L392.465,24.576z M385.209,19.907
	c1.789-0.898,3.031-1.67,3.726-2.298c0.696-0.63,1.147-1.355,1.342-2.158c0.177-0.718,0.179-1.291,0.003-1.703
	c-0.171-0.418-0.494-0.625-0.964-0.625c-0.741,0-1.469,0.479-2.179,1.431c-0.708,0.951-1.258,2.209-1.635,3.752
	c-0.066,0.281-0.135,0.564-0.184,0.837C385.267,19.416,385.231,19.67,385.209,19.907 M368.478,24.435
	c-1.548,0.843-3.006,1.587-4.374,2.224c-1.365,0.635-2.652,1.182-3.854,1.632c-0.223-0.025-0.41-0.07-0.563-0.134
	c-0.147-0.063-0.284-0.158-0.396-0.273c-0.11-0.395-0.16-0.829-0.144-1.297c0.017-0.47,0.119-1.065,0.288-1.758
	c0.091-0.379,0.247-0.902,0.449-1.547c0.203-0.651,0.428-1.385,0.701-2.187l0.772-2.273c0.171-0.51,0.32-0.969,0.438-1.366
	c0.119-0.402,0.213-0.719,0.263-0.925c0.198-0.818,0.231-1.362,0.103-1.62c-0.127-0.257-0.502-0.388-1.115-0.388
	c-0.258,0-0.534,0.027-0.818,0.078s-0.627,0.139-1.014,0.261l0.234-0.946c1.601-0.646,3.035-1.185,4.301-1.593
	c1.266-0.408,2.437-0.733,3.509-0.958c0.169,0.062,0.319,0.133,0.442,0.225c0.129,0.084,0.244,0.206,0.346,0.364
	c-0.246,0.995-0.598,2.148-1.033,3.46c-0.049,0.147-0.082,0.262-0.094,0.315l-0.973,2.807c-0.091,0.274-0.224,0.655-0.398,1.14
	c-0.342,0.994-0.557,1.66-0.637,1.989c-0.194,0.802-0.256,1.441-0.176,1.908c0.08,0.468,0.279,0.704,0.592,0.704
	c0.219,0,0.549-0.061,0.976-0.176c0.437-0.114,1.288-0.398,2.562-0.836L368.478,24.435z M366.061,10.068
	c-0.38-0.545-0.723-1.094-1.014-1.643c-0.29-0.547-0.551-1.109-0.77-1.679c0.583-0.462,1.211-0.928,1.875-1.393
	c0.659-0.462,1.358-0.935,2.086-1.395c0.223,0.546,0.457,1.078,0.692,1.582c0.237,0.506,0.501,1.001,0.776,1.472
	c-0.496,0.511-1.053,1.025-1.651,1.529C367.455,9.048,366.783,9.558,366.061,10.068 M330.727,24.435
	c-1.548,0.843-3.006,1.587-4.375,2.224c-1.363,0.635-2.652,1.182-3.852,1.632c-0.223-0.025-0.412-0.071-0.563-0.134
	c-0.149-0.064-0.286-0.158-0.397-0.273c-0.109-0.395-0.158-0.829-0.144-1.297c0.017-0.47,0.12-1.065,0.288-1.758
	c0.092-0.379,0.248-0.901,0.45-1.547c0.204-0.65,0.429-1.385,0.702-2.187l0.772-2.273c0.171-0.51,0.319-0.969,0.437-1.366
	c0.121-0.402,0.214-0.719,0.264-0.925c0.197-0.818,0.23-1.362,0.104-1.62c-0.129-0.257-0.504-0.388-1.115-0.388
	c-0.258,0-0.535,0.027-0.819,0.078s-0.626,0.139-1.013,0.261l0.232-0.946c1.602-0.646,3.034-1.181,4.303-1.593
	c1.268-0.411,2.436-0.733,3.508-0.958c0.17,0.062,0.318,0.133,0.441,0.225c0.131,0.084,0.245,0.206,0.346,0.364
	c-0.245,0.995-0.592,2.146-1.033,3.46c-0.049,0.152-0.08,0.262-0.094,0.315l-0.973,2.807c-0.09,0.274-0.223,0.655-0.398,1.14
	c-0.34,0.994-0.557,1.66-0.637,1.989c-0.194,0.802-0.254,1.441-0.174,1.908c0.08,0.468,0.277,0.704,0.592,0.704
	c0.217,0,0.549-0.061,0.976-0.176c0.435-0.114,1.288-0.398,2.562-0.836L330.727,24.435z M328.31,10.068
	c-0.379-0.545-0.722-1.094-1.013-1.643c-0.291-0.547-0.553-1.109-0.77-1.679c0.583-0.462,1.209-0.929,1.875-1.393
	c0.658-0.464,1.356-0.935,2.086-1.395c0.223,0.546,0.456,1.078,0.691,1.582c0.238,0.506,0.501,1.001,0.775,1.472
	c-0.494,0.511-1.053,1.025-1.649,1.529C329.703,9.048,329.033,9.558,328.31,10.068 M294.959,24.405
	c-1.123,0.794-2.219,1.496-3.282,2.121c-1.063,0.619-2.116,1.158-3.155,1.608c-0.191-0.013-0.382-0.038-0.561-0.081
	c-0.18-0.042-0.361-0.097-0.539-0.169c-0.379-0.77-0.616-1.503-0.719-2.201c-0.1-0.703-0.062-1.4,0.109-2.097
	c0.428-1.728,0.938-3.322,1.529-4.771c0.592-1.449,1.168-2.535,1.732-3.257c1.014-0.678,2.154-1.356,3.42-2.036
	c1.263-0.679,2.612-1.352,4.039-2.019c0.354-0.054,0.65-0.104,0.894-0.133c0.241-0.03,0.45-0.043,0.624-0.043
	c0.916,0,1.822,0.105,2.723,0.304c0.898,0.199,1.727,0.492,2.483,0.867l-1.585,1.26c-0.457,1.104-0.862,2.158-1.211,3.165
	c-0.344,1.007-0.637,1.994-0.877,2.964c-0.4,1.619-0.6,2.771-0.6,3.443c0.008,0.673,0.198,1.014,0.578,1.014
	c0.251,0,1.305-0.473,3.162-1.414l0.264-0.146l-0.307,1.243c-1.691,1.158-3.168,2.072-4.438,2.733
	c-1.262,0.661-2.439,1.159-3.539,1.491c-0.19-0.109-0.367-0.229-0.539-0.369c-0.166-0.145-0.336-0.315-0.514-0.516
	c0.018-0.436,0.055-0.903,0.104-1.393C294.81,25.483,294.877,24.962,294.959,24.405 M295.276,22.914
	c0.566-1.935,1.054-3.554,1.478-4.862c0.418-1.309,0.82-2.455,1.189-3.437c-0.332-0.236-0.701-0.419-1.096-0.54
	c-0.391-0.128-0.809-0.189-1.243-0.189c-0.731,0-1.403,0.534-2.014,1.602c-0.615,1.065-1.194,2.709-1.743,4.936
	c-0.273,1.114-0.354,2.041-0.229,2.782c0.125,0.738,0.381,1.106,0.776,1.106c0.149,0,0.349-0.047,0.589-0.15
	c0.243-0.097,0.568-0.26,0.977-0.484L295.276,22.914z M237.713,24.405c-1.123,0.794-2.217,1.496-3.282,2.121
	c-1.063,0.619-2.117,1.158-3.155,1.608c-0.191-0.013-0.382-0.038-0.561-0.081c-0.18-0.042-0.36-0.097-0.538-0.169
	c-0.38-0.77-0.618-1.503-0.72-2.201c-0.101-0.703-0.062-1.4,0.11-2.097c0.427-1.728,0.937-3.322,1.529-4.771
	c0.592-1.449,1.167-2.535,1.729-3.257c1.018-0.678,2.156-1.356,3.422-2.036c1.264-0.679,2.612-1.352,4.041-2.019
	c0.353-0.054,0.648-0.104,0.892-0.133c0.241-0.03,0.452-0.043,0.624-0.043c0.916,0,1.822,0.105,2.723,0.304
	c0.899,0.199,1.727,0.492,2.482,0.867l-1.584,1.26c-0.456,1.104-0.862,2.158-1.211,3.165c-0.344,1.007-0.637,1.994-0.877,2.964
	c-0.399,1.619-0.6,2.771-0.598,3.443c0.008,0.673,0.196,1.014,0.575,1.014c0.252,0,1.308-0.473,3.163-1.414l0.264-0.146
	l-0.306,1.243c-1.692,1.158-3.169,2.072-4.437,2.733c-1.264,0.661-2.441,1.159-3.541,1.491c-0.189-0.109-0.367-0.229-0.539-0.369
	c-0.164-0.145-0.336-0.315-0.516-0.516c0.02-0.436,0.057-0.903,0.105-1.393C237.563,25.483,237.631,24.962,237.713,24.405
	 M238.029,22.914c0.567-1.935,1.057-3.554,1.479-4.862c0.419-1.309,0.817-2.455,1.188-3.437c-0.332-0.236-0.699-0.419-1.096-0.54
	c-0.391-0.128-0.807-0.189-1.242-0.189c-0.73,0-1.404,0.534-2.015,1.602c-0.614,1.065-1.192,2.709-1.741,4.936
	c-0.275,1.114-0.354,2.041-0.23,2.782c0.125,0.738,0.381,1.106,0.776,1.106c0.151,0,0.349-0.047,0.591-0.15
	c0.241-0.097,0.566-0.26,0.973-0.484L238.029,22.914z M191.082,37.261l6.526-21.016l-2.106,0.728l0.299-1.207
	c0.357-0.14,0.795-0.328,1.304-0.55c0.507-0.225,0.836-0.365,0.991-0.426c0.354-1.066,0.643-1.92,0.874-2.564
	c0.231-0.648,0.446-1.201,0.649-1.661c0.403-0.319,1.031-0.737,1.879-1.255c0.492-0.3,1.254-0.741,2.291-1.334l0.002,0.003
	c0.107-0.065,0.231-0.104,0.361-0.104c0.409,0,0.743,0.361,0.743,0.805c0,0.204-0.071,0.391-0.187,0.533
	c-0.008,0.01-0.015,0.02-0.025,0.031c-0.619,0.818-1.163,2.097-1.629,3.825l2.304-0.781c0.837-0.298,1.537-0.527,2.095-0.703
	c0.561-0.17,0.91-0.256,1.056-0.256c1.155,0,1.936,0.528,2.341,1.583c0.402,1.055,0.381,2.502-0.076,4.353
	c-0.404,1.643-0.904,3.104-1.5,4.382c-0.59,1.279-1.267,2.354-2.029,3.219l-0.713,0.388c-2.154,1.121-3.725,1.964-4.699,2.521
	c-0.325,0.074-0.611,0.122-0.86,0.159c-0.248,0.035-0.47,0.054-0.666,0.054c-0.274,0-0.548-0.042-0.83-0.122
	c-0.274-0.085-0.576-0.224-0.903-0.411l-2.99,9.807H191.082z M199.543,24.312c0.285,0.566,0.658,1.039,1.125,1.415
	c0.467,0.368,0.867,0.557,1.207,0.557c0.722,0,1.455-0.685,2.199-2.049c0.744-1.37,1.422-3.279,2.027-5.728
	c0.348-1.414,0.375-2.492,0.08-3.245c-0.295-0.75-0.889-1.127-1.788-1.127c-0.329,0-0.637,0.025-0.929,0.08
	c-0.293,0.055-0.576,0.139-0.855,0.254c-0.263,0.843-0.742,2.393-1.434,4.655C200.483,21.386,199.939,23.113,199.543,24.312
	 M210.484,28.134c0.408-1.469,1.092-3.723,2.061-6.766c0.265-0.843,0.468-1.486,0.609-1.922l1.564-4.958
	c0.148-0.461,0.345-1.104,0.595-1.934c1.034-3.316,1.927-5.347,2.683-6.093c0.646-0.636,1.649-1.352,3.013-2.146
	c0.187-0.108,0.378-0.218,0.573-0.325c0.101-0.054,0.213-0.086,0.33-0.086c0.406,0,0.737,0.36,0.737,0.801
	c0,0.195-0.067,0.378-0.176,0.517c-0.002,0.002-0.003,0.005-0.004,0.009c-0.483,0.799-1.265,2.854-2.345,6.169l-1.012,3.177
	l2.338-0.921c0.289-0.108,0.715-0.278,1.289-0.516c2.553-1.03,4.483-1.637,5.777-1.813c0.081,0.086,0.148,0.17,0.213,0.268
	c0.066,0.096,0.129,0.223,0.201,0.387c-0.391,1.45-0.865,2.966-1.419,4.555c-0.078,0.223-0.128,0.381-0.151,0.477l-0.779,2.432
	c-0.049,0.151-0.102,0.321-0.154,0.508c-0.051,0.184-0.125,0.486-0.23,0.911c-0.263,1.066-0.361,1.853-0.304,2.363
	c0.06,0.51,0.287,0.764,0.679,0.764c0.247,0,0.873-0.169,1.879-0.512l-0.369,1.499c-1.197,0.698-2.199,1.265-3.006,1.704
	c-1.213,0.655-2.317,1.22-3.33,1.68c-0.217,0-0.422-0.031-0.613-0.091c-0.193-0.055-0.363-0.138-0.516-0.248
	c-0.17-0.711-0.27-1.347-0.293-1.909c-0.025-0.558,0.022-1.086,0.143-1.569c0.078-0.323,0.273-0.928,0.58-1.831
	c0.311-0.898,0.541-1.584,0.682-2.044l0.822-2.539c0.046-0.14,0.135-0.407,0.257-0.788c0.123-0.388,0.208-0.692,0.265-0.917
	c0.122-0.496,0.157-0.885,0.107-1.157c-0.055-0.271-0.195-0.406-0.426-0.406c-0.344,0-0.863,0.108-1.541,0.322
	c-0.684,0.211-1.557,0.544-2.623,0.993l-1.034,3.056c-0.054,0.175-0.347,1.109-0.865,2.808c-0.522,1.69-1.042,3.266-1.551,4.721
	L210.484,28.134z M321.285,23.811c-1.959,1.211-3.533,2.145-4.728,2.819c-1.197,0.666-2.251,1.205-3.153,1.605
	c-0.183-0.013-0.365-0.044-0.553-0.098c-0.182-0.054-0.411-0.139-0.684-0.26c-0.352-1.02-0.578-1.978-0.692-2.874
	c-0.106-0.903-0.094-1.63,0.04-2.182c0.066-0.262,0.383-1.272,0.945-3.036c0.228-0.692,0.408-1.238,0.543-1.655l1.693-5.202
	c0.114-0.375,0.287-0.922,0.514-1.63c1.102-3.45,2.013-5.486,2.734-6.111c0.567-0.484,1.391-1.042,2.469-1.673
	c0.51-0.295,1.039-0.583,1.586-0.865c0.006-0.002,0.011-0.004,0.015-0.006c0.003-0.002,0.005-0.005,0.009-0.006
	c0.067-0.033,0.145-0.047,0.223-0.047c0.303,0,0.549,0.266,0.549,0.593c0,0.165-0.063,0.314-0.164,0.423
	c-0.514,0.504-1.375,2.604-2.58,6.304c-0.111,0.369-0.204,0.654-0.276,0.854l-2.032,6.177c-0.246,0.77-0.467,1.486-0.668,2.146
	c-0.203,0.667-0.322,1.073-0.359,1.225c-0.234,0.952-0.245,1.83-0.031,2.636c0.219,0.813,0.559,1.219,1.029,1.219
	c0.24,0,0.656-0.126,1.242-0.375c0.592-0.248,1.472-0.667,2.644-1.255L321.285,23.811z M401.916,24.296l-2.629,1.581
	c-0.078,0.043-0.189,0.115-0.348,0.213c-1.613,0.97-3.018,1.727-4.223,2.272c-0.168-0.024-0.327-0.061-0.48-0.115
	c-0.148-0.056-0.293-0.126-0.432-0.224c-0.264-0.807-0.398-1.575-0.41-2.315c-0.013-0.74,0.096-1.589,0.333-2.552
	c0.415-1.681,0.937-3.269,1.562-4.76c0.623-1.49,1.121-2.401,1.5-2.733c0.383-0.352,1.252-0.935,2.619-1.748
	c1.368-0.812,2.877-1.611,4.52-2.407c0.134,0,0.314-0.005,0.539-0.016c0.228-0.012,0.385-0.018,0.484-0.018
	c0.014,0,0.045,0.006,0.098,0.018c0.181,0.011,0.369,0.016,0.564,0.016c0.748-2.417,1.317-3.98,1.699-4.691
	c0.561-0.685,1.604-1.495,3.131-2.436c0.658-0.404,1.355-0.796,2.1-1.181c0.064-0.04,0.141-0.064,0.221-0.064
	c0.251,0,0.455,0.223,0.455,0.495c0,0.197-0.109,0.368-0.264,0.448c-0.28,0.163-0.552,0.498-0.82,1.005
	c-0.393,0.752-1.049,2.583-1.973,5.479l-0.984,3.063c-0.372,1.169-0.7,2.23-0.986,3.182c-0.285,0.952-0.494,1.709-0.631,2.261
	c-0.443,1.802-0.648,3.085-0.617,3.861s0.305,1.164,0.818,1.164c0.184,0,0.494-0.078,0.921-0.23c0.435-0.151,1.169-0.461,2.21-0.922
	l-0.497,1.225c-1.31,0.867-2.587,1.637-3.836,2.31c-1.25,0.674-2.485,1.269-3.706,1.776c-0.252-0.085-0.466-0.188-0.639-0.32
	c-0.176-0.128-0.33-0.304-0.455-0.534c0.003-0.757,0.013-1.363,0.042-1.824C401.826,25.115,401.867,24.684,401.916,24.296
	 M404.576,14.584c-0.412-0.273-0.828-0.48-1.24-0.612c-0.408-0.133-0.809-0.207-1.188-0.207c-0.653,0-1.276,0.543-1.853,1.625
	c-0.572,1.081-1.143,2.75-1.695,4.995c-0.279,1.137-0.365,2.061-0.242,2.764c0.123,0.704,0.421,1.055,0.902,1.055
	c0.379,0,1.207-0.369,2.486-1.114c0.191-0.122,0.328-0.2,0.418-0.249c0.408-1.564,0.9-3.24,1.451-5.025
	c0.118-0.377,0.191-0.637,0.223-0.765L404.576,14.584z M118.848,10.068c-0.412-0.461-0.779-0.958-1.107-1.484
	c-0.328-0.528-0.619-1.091-0.859-1.697c0.664-0.563,1.324-1.091,1.973-1.571c0.654-0.478,1.325-0.933,2.01-1.356
	c0.26,0.484,0.52,1.019,0.775,1.588c0.254,0.575,0.516,1.194,0.775,1.854c-0.561,0.512-1.137,0.989-1.725,1.425
	S119.483,9.679,118.848,10.068 M109.961,36.676c-0.078,0.042-0.178,0.068-0.271,0.068c-0.319,0-0.581-0.284-0.581-0.632
	c0-0.19,0.08-0.359,0.202-0.476c0.151-0.173,0.302-0.397,0.442-0.672c0.195-0.375,0.519-1.212,0.968-2.49
	c0.457-1.287,0.961-2.808,1.509-4.553l2.13-6.894c0.253-0.818,0.482-1.563,0.679-2.229c0.199-0.667,0.338-1.158,0.414-1.467
	c0.229-0.937,0.273-1.59,0.129-1.953c-0.143-0.369-0.512-0.551-1.098-0.551c-0.229,0-0.521,0.03-0.883,0.097
	c-0.357,0.067-0.8,0.163-1.322,0.292l0.445-1.153c1.295-0.521,2.584-1.012,3.854-1.472c1.273-0.462,2.545-0.899,3.799-1.298
	c0.199,0.072,0.371,0.169,0.511,0.303c0.142,0.127,0.269,0.297,0.368,0.498c-0.045,0.187-0.113,0.484-0.201,0.883
	c-0.089,0.407-0.16,0.716-0.217,0.946c-0.065,0.267-0.331,1.164-0.795,2.679l-0.151,0.498l-1.226,4.153
	c-0.113,0.393-0.289,0.97-0.521,1.727c-1.763,5.94-3.083,9.414-3.962,10.42c-0.467,0.557-1.461,1.371-2.98,2.438
	C110.802,36.119,110.388,36.397,109.961,36.676"/>
</svg>
